<svg width="16" height="24" viewBox="0 0 24 33" fill="none" xmlns="http://www.w3.org/2000/svg">
<path d="M11.9982 20.8034C14.876 20.8034 17.199 18.4803 17.199 15.6025V5.20085C17.199 2.32305 14.876 0 11.9982 0C9.12035 0 6.79731 2.32305 6.79731 5.20085V15.6025C6.79731 18.4803 9.12035 20.8034 11.9982 20.8034ZM22.2438 15.6025C21.3944 15.6025 20.6836 16.2266 20.5449 17.0761C19.8341 21.1501 16.2802 24.2706 11.9982 24.2706C7.71612 24.2706 4.16221 21.1501 3.45143 17.0761C3.31274 16.2266 2.60196 15.6025 1.75249 15.6025C0.694981 15.6025 -0.137155 16.5387 0.0188703 17.5789C0.868342 22.7797 5.02902 26.8537 10.2645 27.5992V31.2051C10.2645 32.1586 11.0447 32.9387 11.9982 32.9387C12.9516 32.9387 13.7318 32.1586 13.7318 31.2051V27.5992C18.9673 26.8537 23.128 22.7797 23.9774 17.5789C24.1508 16.5387 23.3013 15.6025 22.2438 15.6025Z" fill="white"/>
</svg>
